<svg id="Layer_1" data-name="Layer 1" xmlns="http://www.w3.org/2000/svg" viewBox="0 0 182.3 200"><defs><style>.cls-1{fill:#e86667;}.cls-2{fill:#f58b88;}</style></defs><title>drink</title><path class="cls-1" d="M58.93,69.68s34.76,5.06,65.25-1.22L91.48,116Z"/><path class="cls-2" d="M57.89,69.15S90.12,73.7,118.4,68L88.07,110.91Z"/><path class="cls-1" d="M89.14,57.76h1.91c19.5,0,35.31,3.44,35.31,7.68s-15.81,7.68-35.31,7.68-35.3-3.44-35.3-7.68c0-2.12,4-4,10.34-5.43"/><path class="cls-2" d="M86.35,57.76h1.77c18.09,0,32.74,3.38,32.74,7.54s-14.65,7.55-32.74,7.55-32.74-3.38-32.74-7.55c0-2.08,3.67-4,9.59-5.33"/></svg>