<svg id="Layer_1" data-name="Layer 1" xmlns="http://www.w3.org/2000/svg" viewBox="0 0 182.3 200"><defs><style>.cls-1{fill:#c0bece;}.cls-2,.cls-3{fill:none;}.cls-2,.cls-3,.cls-4{stroke:#1e3363;stroke-linecap:round;stroke-linejoin:round;}.cls-2{stroke-width:1.76px;}.cls-3,.cls-4{stroke-width:1.77px;}.cls-4{fill:#fff;}</style></defs><title>glass</title><path class="cls-1" d="M105.51,168.82c19.2.09,34.51,2,34.51,4.32s-16.14,4.32-36.06,4.32-36.06-1.93-36.06-4.32,14.6-4.14,33.15-4.31"/><path class="cls-2" d="M85.33,54.72H87.4c21.17,0,38.34,4,38.34,8.95s-17.17,9-38.34,9-38.33-4-38.33-9c0-2.47,4.29-4.71,11.22-6.33"/><polyline class="cls-3" points="49.07 64.16 85.63 116.01 85.63 171.14 90.09 171.14 90.09 116.01 90.07 116.01 125.74 64.16"/><path class="cls-4" d="M90.17,166.82c19.19.09,34.51,2,34.51,4.32s-16.15,4.32-36.06,4.32-36.06-1.93-36.06-4.32,14.59-4.14,33.15-4.31"/></svg>